# Blender 3.3.1
# www.blender.org
o Icosphere
v -0.298141 -0.815738 0.000000
v -0.092128 -0.815738 -0.283546
v 0.241200 -0.815738 -0.175240
v 0.241200 -0.815738 0.175240
v -0.092128 -0.815738 0.283546
v 0.723600 -0.447215 0.175240
v 0.780542 -0.149072 0.350480
v 0.574528 -0.149072 0.634027
v 0.390272 -0.447215 0.634027
v 0.482400 -0.631477 0.350480
v -0.184257 -0.631477 0.567094
v 0.056943 -0.447215 0.742333
v -0.092129 -0.149072 0.850640
v -0.425457 -0.149072 0.742333
v -0.482398 -0.447215 0.567094
v -0.596284 -0.631477 0.000000
v -0.688412 -0.447215 0.283546
v -0.837483 -0.149072 0.175240
v -0.837483 -0.149072 -0.175240
v -0.688412 -0.447215 -0.283546
v -0.184257 -0.631477 -0.567094
v -0.482398 -0.447215 -0.567094
v -0.425457 -0.149072 -0.742333
v -0.092129 -0.149072 -0.850640
v 0.056943 -0.447215 -0.742333
v 0.723600 -0.447215 -0.175240
v 0.482400 -0.631477 -0.350480
v 0.390272 -0.447215 -0.634027
v 0.574528 -0.149072 -0.634027
v 0.780542 -0.149072 -0.350480
v 0.092129 0.149072 0.850640
v 0.425457 0.149072 0.742333
v 0.482398 0.447215 0.567094
v 0.184257 0.631477 0.567094
v -0.056943 0.447215 0.742333
v -0.780542 0.149072 0.350480
v -0.574528 0.149072 0.634027
v -0.390272 0.447215 0.634027
v -0.482400 0.631477 0.350480
v -0.723600 0.447215 0.175240
v -0.574528 0.149072 -0.634027
v -0.780542 0.149072 -0.350480
v -0.723600 0.447215 -0.175240
v -0.482400 0.631477 -0.350480
v -0.390272 0.447215 -0.634027
v 0.425457 0.149072 -0.742333
v 0.092129 0.149072 -0.850640
v -0.056943 0.447215 -0.742333
v 0.184257 0.631477 -0.567094
v 0.482398 0.447215 -0.567094
v 0.837483 0.149072 0.175240
v 0.837483 0.149072 -0.175240
v 0.688412 0.447215 -0.283546
v 0.596284 0.631477 0.000000
v 0.688412 0.447215 0.283546
v 0.092128 0.815738 0.283546
v 0.298141 0.815738 0.000000
v 0.092128 0.815738 -0.283546
v -0.241200 0.815738 -0.175240
v -0.241200 0.815738 0.175240
vn 0.6071 -0.7947 -0.0000
vn -0.4911 -0.7947 -0.3568
vn 0.1876 -0.7947 0.5774
vn 0.1876 -0.7947 -0.5774
vn 0.3035 -0.1876 0.9342
vn 0.7946 0.1876 0.5774
vn 0.9822 -0.1876 -0.0000
vn -0.3035 0.1876 0.9342
vn -0.9822 0.1876 -0.0000
vn -0.3035 0.1876 -0.9342
vn -0.7946 -0.1876 0.5774
vn -0.7946 -0.1876 -0.5774
vn 0.3035 -0.1876 -0.9342
vn 0.7946 0.1876 -0.5774
vn 0.4911 0.7947 0.3568
vn -0.1876 0.7947 0.5774
vn -0.6071 0.7947 -0.0000
vn -0.1876 0.7947 -0.5774
vn 0.4911 0.7947 -0.3568
vn -0.0000 -1.0000 -0.0000
vn 0.7236 -0.4472 0.5257
vn -0.2764 -0.4472 0.8507
vn -0.8944 -0.4472 -0.0000
vn -0.2764 -0.4472 -0.8507
vn 0.7236 -0.4472 -0.5257
vn 0.2764 0.4472 0.8507
vn -0.7236 0.4472 0.5257
vn -0.7236 0.4472 -0.5257
vn 0.2764 0.4472 -0.8507
vn 0.8944 0.4472 -0.0000
vn -0.0000 1.0000 -0.0000
vn -0.4911 -0.7947 0.3568
vn -0.2764 -0.4472 0.8506
vn 0.2764 0.4472 0.8506
vt 0.753751 0.681417
vt 0.805348 0.720648
vt 0.785417 0.781259
vt 0.723310 0.780413
vt 0.703377 0.721362
vt 0.719429 0.910211
vt 0.105988 0.427431
vt 0.649957 0.988563
vt 0.018782 0.485074
vt 0.563421 0.915900
vt 0.611701 0.836497
vt 0.687071 0.838467
vt 0.637344 0.707359
vt 0.581686 0.761088
vt -0.077598 0.771457
vt 0.491601 0.723804
vt -0.050717 0.871900
vt 0.512927 0.609734
vt 0.613594 0.632682
vt 0.748457 0.613765
vt 0.677928 0.577407
vt 0.189369 1.053096
vt 0.684742 0.475707
vt 0.293248 1.059420
vt 0.802958 0.459116
vt 0.813400 0.567775
vt 0.871012 0.695499
vt 0.891895 0.612585
vt 0.543853 0.890002
vt 1.003288 0.587803
vt 0.584447 0.792205
vt 1.028600 0.709233
vt 0.933670 0.745442
vt 0.802792 0.906907
vt 0.829817 0.834947
vt 0.909632 0.827367
vt 0.495893 0.492381
vt 0.962993 0.921126
vt 0.410985 0.426551
vt 0.863835 0.980723
vt 0.426374 0.802927
vt -0.004051 0.697956
vt 0.462285 0.898975
vt 0.025099 0.589420
vt 0.120881 0.618514
vt 0.139420 0.692031
vt 0.082051 0.741111
vt 0.583752 0.434815
vt 0.142906 0.959969
vt 0.497845 0.501828
vt 0.049711 0.898842
vt 0.107261 0.817813
vt 0.181282 0.821953
vt 0.210479 0.891923
vt 1.008928 0.468884
vt 0.438859 0.903745
vt 0.908763 0.404541
vt 0.350664 0.972618
vt 0.291672 0.892000
vt 0.319263 0.822498
vt 0.395623 0.817124
vt 1.071149 0.896561
vt 0.481336 0.598830
vt 1.103953 0.790614
vt 0.520047 0.708151
vt 0.421860 0.739504
vt 0.363460 0.690687
vt 0.384716 0.614179
vt 0.706822 1.079217
vt 0.199512 0.474133
vt 0.813760 1.075297
vt 0.311521 0.467169
vt 0.314700 0.568585
vt 0.251221 0.608358
vt 0.186148 0.569625
vt 0.202522 0.709271
vt 0.252781 0.672869
vt 0.300642 0.712087
vt 0.278398 0.768881
vt 0.218365 0.766800
s 0
f 10/12/1 3/3/1 26/34/1
f 1/1/2 20/26/2 21/27/2
f 4/4/3 9/11/3 11/13/3
f 2/2/4 25/33/4 27/35/4
f 12/14/5 8/10/5 31/41/5
f 7/7/6 55/75/6 32/44/6
f 6/6/7 30/40/7 51/69/7
f 13/15/8 35/47/8 37/51/8
f 18/22/9 40/54/9 42/58/9
f 23/29/10 45/61/10 47/65/10
f 17/21/11 14/18/11 36/48/11
f 22/28/12 19/25/12 41/55/12
f 28/36/13 24/32/13 46/62/13
f 29/37/14 50/68/14 52/72/14
f 33/45/15 54/74/15 56/76/15
f 38/52/16 34/46/16 60/80/16
f 43/59/17 39/53/17 59/79/17
f 48/66/18 44/60/18 58/78/18
f 53/73/19 49/67/19 57/77/19
f 2/2/20 4/4/20 5/5/20
f 7/8/21 9/11/21 10/12/21
f 12/14/22 14/18/22 15/19/22
f 17/21/23 19/25/23 20/26/23
f 22/28/24 24/32/24 25/33/24
f 27/35/25 29/38/25 30/40/25
f 32/44/26 34/46/26 35/47/26
f 37/51/27 39/53/27 40/54/27
f 42/58/28 44/60/28 45/61/28
f 47/65/29 49/67/29 50/68/29
f 52/72/30 54/74/30 55/75/30
f 57/77/31 59/79/31 60/80/31
f 5/5/32 15/19/32 16/20/32
f 26/34/1 6/6/1 10/12/1
f 10/12/1 4/4/1 3/3/1
f 3/3/1 27/35/1 26/34/1
f 21/27/2 2/2/2 1/1/2
f 1/1/2 16/20/2 20/26/2
f 20/26/2 22/28/2 21/27/2
f 11/13/3 5/5/3 4/4/3
f 4/4/3 10/12/3 9/11/3
f 9/11/3 12/14/3 11/13/3
f 27/35/4 3/3/4 2/2/4
f 2/2/4 21/27/4 25/33/4
f 25/33/4 28/36/4 27/35/4
f 31/41/5 13/16/5 12/14/5
f 12/14/5 9/11/5 8/10/5
f 8/10/5 32/43/5 31/41/5
f 32/44/6 8/9/6 7/7/6
f 7/7/6 51/70/6 55/75/6
f 55/75/6 33/45/6 32/44/6
f 51/69/7 7/8/7 6/6/7
f 6/6/7 26/34/7 30/40/7
f 30/40/7 52/71/7 51/69/7
f 37/51/8 14/17/8 13/15/8
f 13/15/8 31/42/8 35/47/8
f 35/47/8 38/52/8 37/51/8
f 42/58/9 19/24/9 18/22/9
f 18/22/9 36/49/9 40/54/9
f 40/54/9 43/59/9 42/58/9
f 47/65/10 24/31/10 23/29/10
f 23/29/10 41/56/10 45/61/10
f 45/61/10 48/66/10 47/65/10
f 36/48/11 18/23/11 17/21/11
f 17/21/11 15/19/11 14/18/11
f 14/18/11 37/50/11 36/48/11
f 41/55/12 23/30/12 22/28/12
f 22/28/12 20/26/12 19/25/12
f 19/25/12 42/57/12 41/55/12
f 46/62/13 29/38/13 28/36/13
f 28/36/13 25/33/13 24/32/13
f 24/32/13 47/64/13 46/62/13
f 52/72/14 30/39/14 29/37/14
f 29/37/14 46/63/14 50/68/14
f 50/68/14 53/73/14 52/72/14
f 56/76/15 34/46/15 33/45/15
f 33/45/15 55/75/15 54/74/15
f 54/74/15 57/77/15 56/76/15
f 60/80/16 39/53/16 38/52/16
f 38/52/16 35/47/16 34/46/16
f 34/46/16 56/76/16 60/80/16
f 59/79/17 44/60/17 43/59/17
f 43/59/17 40/54/17 39/53/17
f 39/53/17 60/80/17 59/79/17
f 58/78/18 49/67/18 48/66/18
f 48/66/18 45/61/18 44/60/18
f 44/60/18 59/79/18 58/78/18
f 57/77/19 54/74/19 53/73/19
f 53/73/19 50/68/19 49/67/19
f 49/67/19 58/78/19 57/77/19
f 5/5/20 1/1/20 2/2/20
f 2/2/20 3/3/20 4/4/20
f 10/12/21 6/6/21 7/8/21
f 7/8/21 8/10/21 9/11/21
f 15/19/22 11/13/22 12/14/22
f 12/14/33 13/16/33 14/18/33
f 20/26/23 16/20/23 17/21/23
f 17/21/23 18/23/23 19/25/23
f 25/33/24 21/27/24 22/28/24
f 22/28/24 23/30/24 24/32/24
f 30/40/25 26/34/25 27/35/25
f 27/35/25 28/36/25 29/38/25
f 35/47/34 31/42/34 32/44/34
f 32/44/26 33/45/26 34/46/26
f 40/54/27 36/49/27 37/51/27
f 37/51/27 38/52/27 39/53/27
f 45/61/28 41/56/28 42/58/28
f 42/58/28 43/59/28 44/60/28
f 50/68/29 46/63/29 47/65/29
f 47/65/29 48/66/29 49/67/29
f 55/75/30 51/70/30 52/72/30
f 52/72/30 53/73/30 54/74/30
f 60/80/31 56/76/31 57/77/31
f 57/77/31 58/78/31 59/79/31
f 16/20/32 1/1/32 5/5/32
f 5/5/32 11/13/32 15/19/32
f 15/19/32 17/21/32 16/20/32
